<svg xmlns="http://www.w3.org/2000/svg" width="32" height="32" viewBox="0 0 32 32">
<g id="page">
<path d="M7.5 2.5H19.5L26.5 9.5V27.5A2 2 0 0 1 24.5 29.5H7.5A2 2 0 0 1 5.5 27.5V4.5A2 2 0 0 1 7.5 2.5Z" fill="#FFFFFF" stroke="#B8BFC7" stroke-linejoin="round"/>
</g>
<g id="emblem">
<polygon points="12.5,6 19.5,6 20,8 12,8" fill="#FF99FF"/>
<path d="M12.2 10H19.8L20.5 13L16 18L11.5 13Z" fill="#FF00FF"/>
<rect x="15.3" y="12.8" width="1.4" height="5.2" rx="0" fill="#FFFFFF"/>
<circle cx="16" cy="12.8" r="1.5" fill="#FFFFFF"/>
</g>
<g id="fold">
<path d="M19.5 2.5V7.5Q19.5 9.5 21.5 9.5H26.5Z" fill="#E3E7EB"/>
<path d="M19.5 2.5V7.5Q19.5 9.5 21.5 9.5H26.5Z" fill="none" stroke="#B8BFC7" stroke-linejoin="round"/>
</g>
</svg>
