<svg xmlns="http://www.w3.org/2000/svg" width="32" height="32" viewBox="0 0 32 32">
<g id="page">
<path d="M7.5 2.5H19.5L26.5 9.5V27.5A2 2 0 0 1 24.5 29.5H7.5A2 2 0 0 1 5.5 27.5V4.5A2 2 0 0 1 7.5 2.5Z" fill="#FFFFFF" stroke="#B8BFC7" stroke-linejoin="round"/>
</g>
<g id="emblem">
<rect x="9" y="6" width="14" height="12" rx="2" fill="#FF00FF"/>
<circle cx="14.5" cy="12" r="4" fill="#FF99FF"/>
<circle cx="14.5" cy="12" r="1" fill="#FF00FF"/>
<path d="M20 15.5L17.2 12.4" fill="none" stroke="#FFFFFF" stroke-width="2" stroke-linecap="round"/>
<circle cx="20" cy="15.5" r="1.5" fill="#FFFFFF"/>
</g>
<g id="fold">
<path d="M19.5 2.5V7.5Q19.5 9.5 21.5 9.5H26.5Z" fill="#E3E7EB"/>
<path d="M19.5 2.5V7.5Q19.5 9.5 21.5 9.5H26.5Z" fill="none" stroke="#B8BFC7" stroke-linejoin="round"/>
</g>
</svg>
