<svg xmlns="http://www.w3.org/2000/svg" width="32" height="32" viewBox="0 0 32 32">
<g id="page">
<path d="M7.5 2.5H19.5L26.5 9.5V27.5A2 2 0 0 1 24.5 29.5H7.5A2 2 0 0 1 5.5 27.5V4.5A2 2 0 0 1 7.5 2.5Z" fill="#FFFFFF" stroke="#B8BFC7" stroke-linejoin="round"/>
</g>
<g id="emblem">
<path d="M11 17L16 7L21 17M13.3 13H18.7" fill="none" stroke="#FF00FF" stroke-width="2" stroke-linecap="round" stroke-linejoin="round"/>
<path d="M9 16h6v2H9z M17 16h6v2h-6z" fill="#FF00FF"/>
</g>
<g id="fold">
<path d="M19.5 2.5V7.5Q19.5 9.5 21.5 9.5H26.5Z" fill="#E3E7EB"/>
<path d="M19.5 2.5V7.5Q19.5 9.5 21.5 9.5H26.5Z" fill="none" stroke="#B8BFC7" stroke-linejoin="round"/>
</g>
</svg>
